<?xml version="1.0" encoding="utf-8"?>
<!-- Generator: Adobe Illustrator 24.1.3, SVG Export Plug-In . SVG Version: 6.00 Build 0)  -->
<svg version="1.1" id="Layer_1" xmlns="http://www.w3.org/2000/svg" xmlns:xlink="http://www.w3.org/1999/xlink" x="0px" y="0px"
	 viewBox="0 0 38 31" style="enable-background:new 0 0 38 31;" xml:space="preserve">
<style type="text/css">
	.st0{fill:#C4C4C4;}
</style>
<path class="st0" d="M20,22.6c0-0.9,1-2.1,2-2.1h0.5v-2c0-2.9,2.8-5.5,6-5.5s6,2.6,6,5.5l0.1,2.4h0.6c0,0,0,0,0.1,0
	c2.5-4,2.7-9.9,0.8-12.9c-3.8-6.1-8.5-6.5-17-7.5s-15.5,2-18,8c-2,4.8-0.5,10,3,13L9,24v7l4-6c1.9-0.1,4.4,0.1,7,0.2V22.6z"/>
<path class="st0" d="M34.4,21.4h-0.8V19c0-2.8-2.3-5-5.1-5s-5.1,2.3-5.1,5v2.4h-0.8c-0.9,0-1.6,0.7-1.6,1.6v6.4
	c0,0.9,0.7,1.6,1.6,1.6h11.8c0.9,0,1.6-0.7,1.6-1.6V23C36,22.2,35.3,21.4,34.4,21.4z M30.9,21.4h-4.8V19c0-1.3,1.1-2.4,2.4-2.4
	s2.4,1.1,2.4,2.4V21.4z"/>
</svg>
