<?xml version="1.0" encoding="utf-8"?>
<!-- Generator: Adobe Illustrator 24.1.3, SVG Export Plug-In . SVG Version: 6.00 Build 0)  -->
<svg version="1.1" id="Layer_1" xmlns="http://www.w3.org/2000/svg" xmlns:xlink="http://www.w3.org/1999/xlink" x="0px" y="0px"
	 viewBox="0 0 40 31" style="enable-background:new 0 0 40 31;" xml:space="preserve">
<style type="text/css">
	.st0{fill:#C4C4C4;}
	.st1{clip-path:url(#SVGID_2_);}
</style>
<path class="st0" d="M21,21c0-5.5,4.3-10,9.5-10c2.6,0,5,1.1,6.7,2.9c0.1-2.3-0.4-4.4-1.3-5.9c-3.8-6.1-8.5-6.5-17-7.5s-15.5,2-18,8
	c-2,4.8-0.5,10,3,13l5,2.5v7l4-6c2.3-0.1,5.7,0.2,9,0.3C21.3,24,21,22.5,21,21z"/>
<g>
	<defs>
		<rect id="SVGID_1_" x="23" y="13" width="14.7" height="16"/>
	</defs>
	<clipPath id="SVGID_2_">
		<use xlink:href="#SVGID_1_"  style="overflow:visible;"/>
	</clipPath>
	<g class="st1">
		<path class="st0" d="M30.3,13.3c-4.1,0-7.3,3.5-7.3,7.8s3.3,7.8,7.3,7.8c4.1,0,7.3-3.5,7.3-7.8S34.4,13.3,30.3,13.3z M36.2,21
			c0,0.7-0.1,1.4-0.3,2h-0.6c-0.1,0-0.2-0.1-0.3-0.2l-0.9-1c-0.1-0.1-0.1-0.4,0-0.5l0.4-0.4v-0.3c0-0.1,0-0.2-0.1-0.3L34,20.1
			C34,20.1,33.9,20,33.8,20h-0.5c-0.2,0-0.3-0.2-0.3-0.4c0-0.1,0-0.2,0.1-0.3l0.3-0.3c0.1-0.1,0.1-0.1,0.2-0.1h0.9
			c0.2,0,0.3-0.2,0.3-0.4v-0.3c0-0.2-0.2-0.4-0.3-0.4h-1.1c-0.3,0-0.5,0.2-0.5,0.5v0.1c0,0.2-0.1,0.4-0.3,0.5l-0.9,0.3
			c-0.1,0-0.2,0.1-0.2,0.2v0.1c0,0.1-0.1,0.3-0.2,0.3h-0.5c-0.1,0-0.2-0.1-0.2-0.3c0-0.1-0.1-0.3-0.2-0.3h-0.1
			c-0.1,0-0.2,0.1-0.2,0.1l-0.3,0.6c-0.1,0.2-0.2,0.3-0.4,0.3h-0.7c-0.3,0-0.5-0.2-0.5-0.5v-0.8c0-0.1,0.1-0.3,0.1-0.4l0.6-0.6
			c0.1-0.1,0.2-0.3,0.2-0.5c0-0.1,0.1-0.2,0.2-0.2l1.2-0.4c0.1,0,0.1,0,0.1-0.1l0.8-0.8c0.1-0.1,0.1-0.2,0.1-0.3
			c0-0.2-0.2-0.4-0.3-0.4h-0.6L30.2,16v0.3c0,0.1-0.1,0.3-0.2,0.3h-0.5c-0.1,0-0.2-0.1-0.2-0.3v-0.6c0-0.1,0-0.2,0.1-0.2l0.9-0.7
			c0.1,0,0.1,0,0.2,0C33.6,14.8,36.2,17.6,36.2,21z M26.8,17.7c0-0.1,0-0.2,0.1-0.3l0.8-0.8c0.1-0.1,0.1-0.1,0.2-0.1
			c0.2,0,0.3,0.2,0.3,0.4v0.5c0,0.1,0,0.2-0.1,0.3l-0.3,0.3C27.8,18,27.7,18,27.7,18h-0.5C27,18,26.8,17.9,26.8,17.7z M30.6,27.2V27
			c0-0.3-0.2-0.5-0.5-0.5h-0.6c-0.3,0-0.8-0.2-1-0.4l-0.7-0.5c-0.3-0.3-0.5-0.7-0.5-1.1v-0.7c0-0.5,0.2-1,0.7-1.2l1.3-0.8
			c0.2-0.1,0.4-0.2,0.7-0.2h0.9c0.3,0,0.6,0.1,0.9,0.3L33,23h0.5c0.3,0,0.5,0.1,0.7,0.3l0.5,0.5C34.8,24,35,24,35.1,24h0.4
			C34.5,25.9,32.7,27.1,30.6,27.2z"/>
	</g>
</g>
</svg>
