<svg width="53" height="53" viewBox="0 0 53 53" fill="none" xmlns="http://www.w3.org/2000/svg">
<circle cx="26.5001" cy="26.5" r="11.5" fill="#E2C6AE"/>
<rect x="43.0389" y="29.039" width="11.9805" height="11.9805" transform="rotate(36.3284 43.0389 29.039)" fill="#E2C6AE"/>
<rect x="21.0001" width="12" height="12" fill="#BD6600"/>
<rect x="0.855835" y="35.8149" width="11.9805" height="11.9805" transform="rotate(-29.614 0.855835 35.8149)" fill="#E2C6AE"/>
<rect x="7.63489" y="6.78955" width="11.9805" height="11.9805" transform="rotate(39.5889 7.63489 6.78955)" fill="#E2C6AE"/>
<rect x="47.3754" y="7.64526" width="11.9805" height="11.9805" transform="rotate(61.9984 47.3754 7.64526)" fill="#E2C6AE"/>
<rect x="21.0001" y="41" width="12" height="12" fill="#E2C6AE"/>
<path d="M21.86 23V30H20.56V24.09H19.08V23H21.86ZM25.8086 21.58H26.9286L23.6286 31H22.5086L25.8086 21.58ZM29.9442 25.68C30.4042 25.68 30.8176 25.77 31.1842 25.95C31.5509 26.1233 31.8376 26.3733 32.0442 26.7C32.2509 27.0267 32.3542 27.4033 32.3542 27.83C32.3542 28.2833 32.2409 28.6833 32.0142 29.03C31.7876 29.37 31.4809 29.6333 31.0942 29.82C30.7076 30.0067 30.2742 30.1 29.7942 30.1C28.8342 30.1 28.0876 29.8 27.5542 29.2C27.0276 28.6 26.7642 27.74 26.7642 26.62C26.7642 25.8333 26.9076 25.1633 27.1942 24.61C27.4809 24.05 27.8809 23.6267 28.3942 23.34C28.9142 23.0467 29.5142 22.9 30.1942 22.9C30.5542 22.9 30.8909 22.94 31.2042 23.02C31.5242 23.0933 31.8009 23.2033 32.0342 23.35L31.5542 24.33C31.2076 24.1033 30.7642 23.99 30.2242 23.99C29.5509 23.99 29.0242 24.1967 28.6442 24.61C28.2642 25.0233 28.0742 25.62 28.0742 26.4V26.41C28.2809 26.17 28.5442 25.99 28.8642 25.87C29.1842 25.7433 29.5442 25.68 29.9442 25.68ZM29.7242 29.08C30.1309 29.08 30.4609 28.9733 30.7142 28.76C30.9676 28.54 31.0942 28.25 31.0942 27.89C31.0942 27.5233 30.9676 27.2333 30.7142 27.02C30.4609 26.8067 30.1209 26.7 29.6942 26.7C29.2742 26.7 28.9309 26.8133 28.6642 27.04C28.4042 27.2667 28.2742 27.5533 28.2742 27.9C28.2742 28.24 28.4009 28.5233 28.6542 28.75C28.9142 28.97 29.2709 29.08 29.7242 29.08Z" fill="#404040"/>
</svg>
